<?xml version="1.0" standalone="no"?>
<!DOCTYPE svg PUBLIC "-//W3C//DTD SVG 20010904//EN"
 "http://www.w3.org/TR/2001/REC-SVG-20010904/DTD/svg10.dtd">
<svg version="1.0" xmlns="http://www.w3.org/2000/svg"
 width="1600.000000pt" height="1600.000000pt" viewBox="0 0 1600.000000 1600.000000"
 preserveAspectRatio="xMidYMid meet">
<metadata>
Created by potrace 1.11, written by Peter Selinger 2001-2013
</metadata>
<g transform="translate(0.000000,1600.000000) scale(0.100000,-0.100000)"
fill="#000000" stroke="none">
<path d="M4214 14986 c-64 -16 -134 -56 -170 -98 -42 -50 -84 -149 -100 -235
-8 -43 -53 -598 -99 -1233 -47 -635 -107 -1440 -133 -1787 l-47 -633 -1410 0
-1411 0 -53 -26 c-150 -75 -155 -288 -9 -380 120 -76 565 -260 903 -373 1341
-448 3056 -747 4885 -851 853 -48 2007 -48 2860 0 1757 100 3387 375 4730 800
411 130 921 336 1073 433 94 60 131 169 88 263 -23 49 -88 107 -140 122 -28 9
-406 12 -1442 12 l-1404 0 -47 633 c-26 347 -86 1152 -133 1787 -46 635 -91
1190 -99 1233 -16 86 -58 185 -100 235 -38 44 -106 82 -175 98 -80 19 -7489
19 -7567 0z"/>
<path d="M3670 8989 c0 -23 503 -1787 523 -1834 43 -101 92 -172 181 -261 77
-76 107 -99 186 -138 52 -25 131 -56 175 -68 80 -23 82 -23 945 -23 l865 0 89
23 c108 27 236 86 323 148 131 94 209 190 303 374 47 93 418 793 508 959 67
122 118 173 193 191 91 22 199 -11 265 -82 19 -20 145 -259 317 -603 252 -503
294 -580 354 -655 131 -162 318 -284 508 -332 l90 -23 855 0 c810 0 859 1 930
19 197 51 342 143 453 289 102 132 108 151 357 1096 127 481 234 887 237 903
l6 28 -4332 0 c-3053 0 -4331 -3 -4331 -11z"/>
<path d="M6835 5659 c-304 -39 -582 -182 -800 -410 -143 -151 -240 -310 -304
-504 -64 -193 -64 -193 -68 -1040 -5 -817 1 -1014 37 -1199 43 -221 140 -460
267 -655 287 -442 742 -739 1268 -828 99 -16 174 -18 765 -18 729 0 752 2 990
70 581 167 1056 625 1249 1202 94 283 104 417 98 1428 -4 845 -4 841 -67 1035
-64 196 -161 358 -304 508 -196 204 -417 329 -701 395 -88 21 -112 21 -1225
23 -624 1 -1166 -2 -1205 -7z m2308 -1345 c197 -45 361 -173 448 -349 62 -128
69 -169 69 -420 l0 -220 -494 -494 -495 -494 -3 394 c-5 441 -4 434 -81 584
-78 152 -235 278 -412 331 -83 25 -267 25 -350 0 -177 -53 -334 -179 -412
-331 -77 -150 -76 -143 -81 -584 l-3 -394 -495 494 -494 494 0 220 c0 252 7
292 72 425 80 164 246 295 430 341 68 16 148 18 1151 18 962 1 1086 -1 1150
-15z"/>
</g>
</svg>
